<svg xmlns="http://www.w3.org/2000/svg" width="65" height="59" fill="none"><g fill="#fff" clip-path="url(#a)"><path d="M14.312 25.535c.35 0 .633-.284.633-.633 0-1.137.114-2.245.323-3.32a14.943 14.943 0 0 0 9.638-3.558 12.478 12.478 0 0 0-2.279 7.198c0 .088.07.159.16.159.088 0 .158-.07.158-.16 0-6.742 5.485-12.23 12.228-12.23 1.073 3.443 3.054 6.408 5.623 8.527a12.474 12.474 0 0 1-8.55 3.386.318.318 0 1 0 0 .636 13.11 13.11 0 0 0 9.05-3.62c2.375 1.807 5.208 2.909 8.257 3.043a.634.634 0 0 0 1.263-.061c0-10.238-8.33-18.57-18.57-18.57s-18.57 8.332-18.57 18.57c0 .35.283.633.633.633h.003Zm27.1-3.726a13.129 13.129 0 0 0 3.93-8.19 17.213 17.213 0 0 1 4.2 11.185c-3.002-.136-5.79-1.218-8.13-2.995Zm3.342-8.84a12.482 12.482 0 0 1-3.842 8.44c-2.56-2.108-4.535-5.066-5.598-8.501a.169.169 0 0 0 .02-.075.156.156 0 0 0-.084-.139 19.713 19.713 0 0 1-.795-4.949 17.267 17.267 0 0 1 10.3 5.222v.002ZM34.296 7.727c.055 1.723.325 3.383.784 4.951a12.492 12.492 0 0 0-7.772 2.781 14.916 14.916 0 0 0 2.876-7.732 17.195 17.195 0 0 1 2.063-.127c.697 0 1.377.046 2.05.125v.002Zm-4.273.023a14.734 14.734 0 0 1-3.252 8.166c-.52.47-1 .986-1.438 1.538l-.011.011a14.754 14.754 0 0 1-10.027 3.96C16.763 14.26 22.68 8.697 30.02 7.752l.003-.002ZM25.41 42.414c0-2.024-.465-3.81-1.401-5.357-.934-1.547-2.247-2.745-3.94-3.59-1.69-.845-3.622-1.268-5.796-1.27H5.328v20.432h8.931c2.18 0 4.115-.422 5.808-1.27 1.692-.847 3.005-2.042 3.94-3.59.933-1.547 1.401-3.333 1.401-5.355h.002Zm-4.744 3.692c-.613 1.061-1.488 1.88-2.626 2.452-1.138.575-2.456.861-3.956.861H9.122V35.407H14.091c1.495 0 2.813.289 3.949.862 1.138.574 2.013 1.392 2.626 2.451.614 1.061.92 2.293.92 3.692 0 1.4-.306 2.631-.92 3.692v.002Z"/><path d="M40.878 32.197v17.222H30.516l5.457-5.196c1.325-1.245 2.218-2.354 2.686-3.329.468-.972.7-2.013.7-3.124 0-1.808-.662-3.24-1.986-4.292-1.323-1.052-3.095-1.576-5.312-1.576-1.675 0-3.186.297-4.54.89-1.097.482-2.004 1.13-2.735 1.925a9.145 9.145 0 0 1 2.04 2.338c.052.084.095.172.143.259 1.109-1.407 2.7-2.113 4.771-2.113 1.245 0 2.19.252 2.831.758.643.507.964 1.236.964 2.188 0 .643-.162 1.29-.482 1.943-.32.652-.938 1.415-1.854 2.29l-8.116 7.707v2.54h25.95c2.607 0 4.59-.482 5.954-1.445 1.361-.963 2.043-2.331 2.043-4.101 0-1.284-.332-2.358-.993-3.226-.661-.866-1.557-1.484-2.686-1.854a4.784 4.784 0 0 0 1.927-1.809c.468-.78.7-1.674.7-2.685 0-1.654-.652-2.954-1.956-3.897-1.305-.943-3.163-1.415-5.576-1.415h-9.574l.006.002Zm13.283 5.81c0 .915-.355 1.61-1.066 2.087-.502.337-1.165.548-1.972.648v3.031c2.715.073 4.09 1.045 4.09 2.933s-1.47 2.947-4.408 2.947h-6.13V35.176h5.371c1.325 0 2.34.238 3.051.715.712.477 1.066 1.182 1.066 2.116h-.002ZM35.176 14.475a1.64 1.64 0 1 0 0-3.28 1.64 1.64 0 0 0 0 3.28ZM22.786 26.864a1.64 1.64 0 1 0 0-3.28 1.64 1.64 0 0 0 0 3.28ZM33.074 26.864a1.64 1.64 0 1 0 0-3.28 1.64 1.64 0 0 0 0 3.28ZM50.446 26.864a1.64 1.64 0 1 0 0-3.28 1.64 1.64 0 0 0 0 3.28ZM14.312 26.864a1.64 1.64 0 1 0 0-3.28 1.64 1.64 0 0 0 0 3.28ZM45.563 14.475a1.64 1.64 0 1 0 0-3.28 1.64 1.64 0 0 0 0 3.28Z"/><path d="M45.563 14.825a1.993 1.993 0 0 1-1.99-1.99c0-1.097.893-1.99 1.99-1.99 1.098 0 1.99.893 1.99 1.99s-.892 1.99-1.99 1.99Zm0-3.283a1.294 1.294 0 1 0 .002 2.587 1.294 1.294 0 0 0-.002-2.587ZM34.36 8.609a1.64 1.64 0 1 0 0-3.281 1.64 1.64 0 0 0 0 3.28ZM25.73 18.967a1.64 1.64 0 1 0 0-3.28 1.64 1.64 0 0 0 0 3.28Z"/><path d="M25.73 19.317a1.993 1.993 0 0 1-1.99-1.99c0-1.098.893-1.99 1.99-1.99 1.098 0 1.991.892 1.991 1.99 0 1.097-.893 1.99-1.99 1.99Zm0-3.283a1.294 1.294 0 1 0 .002 2.587 1.294 1.294 0 0 0-.001-2.587Z"/></g><defs><clipPath id="a"><path fill="#fff" d="M0 0h64.362v59H0z"/></clipPath></defs></svg>